# xmcd
#
# Track frame offsets:
#	150
#	21445
#	34006
#	50103
#	63885
#	81871
#	95982
#	105578
#	122302
#	140803
#	151059
#	171577
#	186257
#	192716
#	212586
#	226391
#	247075
#	265296
#	282363
#	301066
#
# Disc length: 4203 seconds
#
# Revision: 1
# Processed by: cddbd v1.5.2PL0 Copyright (c) Steve Scherf et al.
# Submitted via: audiograbber 1.83.01
#
DISCID=2a106914
DTITLE=John Denver - Country Roads
DYEAR=2009
DGENRE=
TTITLE0=Rocky Mountain High
TTITLE1=Baby, you look good to me tonight
TTITLE2=Downhill stuff
TTITLE3=Cowboy's delight
TTITLE4=Dancing with the mountains
TTITLE5=Thank God I'm a country boy
TTITLE6=I guess he'd rather be in Colorado
TTITLE7=Matthew
TTITLE8=Tenderly calling
TTITLE9=Grandma's feather bed
TTITLE10=The wild country
TTITLE11=It makes me giggle
TTITLE12=The music is you
TTITLE13=I'd rather be a cowboy
TTITLE14=Rocky Mountain suite
TTITLE15=The cowboy and the lady
TTITLE16=Wild Montana skies
TTITLE17=A country girl in Paris
TTITLE18=An American hymn
TTITLE19=Take me home, country roads
EXTD=CD3 Rocky Mountain High
EXTT0=
EXTT1=
EXTT2=
EXTT3=
EXTT4=
EXTT5=
EXTT6=
EXTT7=
EXTT8=
EXTT9=
EXTT10=
EXTT11=
EXTT12=
EXTT13=
EXTT14=
EXTT15=
EXTT16=
EXTT17=
EXTT18=
EXTT19=
PLAYORDER=
